<svg xmlns="http://www.w3.org/2000/svg" fill="none" viewBox="0 0 24 24" id="Manage-Search-Fill--Streamline-Rounded-Fill-Material" height="24" width="24">
  <desc>
    Manage Search Fill Streamline Icon: https://streamlinehq.com
  </desc>
  <path fill="#000000" d="M2.75 19c-0.2125 0 -0.390585 -0.07235 -0.53425 -0.217C2.071915 18.6385 2 18.45935 2 18.2455c0 -0.21365 0.071915 -0.39135 0.21575 -0.533C2.359415 17.57085 2.5375 17.5 2.75 17.5h8.5c0.2125 0 0.39065 0.07235 0.5345 0.217 0.14365 0.1445 0.2155 0.32365 0.2155 0.5375 0 0.21365 -0.07185 0.39135 -0.2155 0.533 -0.14385 0.14165 -0.322 0.2125 -0.5345 0.2125h-8.5Zm0 -5.25c-0.2125 0 -0.390585 -0.07235 -0.53425 -0.217C2.071915 13.3885 2 13.20935 2 12.9955c0 -0.21365 0.071915 -0.39135 0.21575 -0.533 0.143665 -0.14165 0.32175 -0.2125 0.53425 -0.2125h3.5c0.2125 0 0.39065 0.07235 0.5345 0.217 0.14365 0.1445 0.2155 0.32365 0.2155 0.5375 0 0.21365 -0.07185 0.39135 -0.2155 0.533 -0.14385 0.14165 -0.322 0.2125 -0.5345 0.2125h-3.5Zm0 -5.25c-0.2125 0 -0.390585 -0.07235 -0.53425 -0.217C2.071915 8.1385 2 7.95935 2 7.7455c0 -0.21365 0.071915 -0.39135 0.21575 -0.533C2.359415 7.07085 2.5375 7 2.75 7h3.5c0.2125 0 0.39065 0.07235 0.5345 0.217 0.14365 0.1445 0.2155 0.32365 0.2155 0.5375 0 0.21365 -0.07185 0.39135 -0.2155 0.533 -0.14385 0.14165 -0.322 0.2125 -0.5345 0.2125h-3.5ZM14 16c-1.38335 0 -2.5625 -0.4875 -3.5375 -1.4625C9.4875 13.5625 9 12.38335 9 11s0.4875 -2.5625 1.4625 -3.5375C11.4375 6.4875 12.61665 6 14 6s2.5625 0.4875 3.5375 1.4625C18.5125 8.4375 19 9.61665 19 11c0 0.53335 -0.08335 1.05 -0.25 1.55 -0.16665 0.5 -0.41665 0.96665 -0.75 1.4l3.475 3.475c0.15 0.15 0.225 0.325 0.225 0.525s-0.075 0.375 -0.225 0.525c-0.15 0.15 -0.325 0.225 -0.525 0.225s-0.375 -0.075 -0.525 -0.225L16.95 15c-0.43335 0.33335 -0.9 0.58335 -1.4 0.75 -0.5 0.16665 -1.01665 0.25 -1.55 0.25Zm-0.006 -1.5c0.97065 0 1.79765 -0.33965 2.481 -1.019 0.68335 -0.6795 1.025 -1.5045 1.025 -2.475 0 -0.97065 -0.33965 -1.79765 -1.019 -2.481 -0.6795 -0.68335 -1.5045 -1.025 -2.475 -1.025 -0.97065 0 -1.79765 0.33965 -2.481 1.019 -0.68335 0.6795 -1.025 1.5045 -1.025 2.475 0 0.97065 0.33965 1.79765 1.019 2.481 0.6795 0.68335 1.5045 1.025 2.475 1.025Z" stroke-width="0.5"></path>
</svg>